<?xml version="1.0" encoding="UTF-8"?>
<svg version="1.1" xmlns="http://www.w3.org/2000/svg" width="512" height="512">
<path d="M0 0 C4.6247346 3.79732355 8.98214536 7.87335195 13.27636719 12.03710938 C14.42160014 13.13588092 15.59791766 14.20213526 16.78125 15.25976562 C42.10844609 38.57350261 56.87212782 76.45199544 58.6484375 110.35351562 C59.01289329 121.02085632 59.03848834 131.75437798 57.6484375 142.35351562 C58.51855469 142.77310547 58.51855469 142.77310547 59.40625 143.20117188 C66.4051051 146.79299355 71.43811969 151.05127023 74.6484375 158.35351562 C74.91586304 160.33721924 74.91586304 160.33721924 74.93896484 162.44433594 C74.95172455 163.23906311 74.96448425 164.03379028 74.97763062 164.8526001 C74.98096909 166.12922516 74.98096909 166.12922516 74.984375 167.43164062 C74.9910318 168.31704529 74.9976886 169.20244995 75.00454712 170.11468506 C75.01466292 171.98740567 75.01936447 173.86016225 75.01904297 175.73291016 C75.02340107 178.57971681 75.05968936 181.42495343 75.09765625 184.27148438 C75.10352788 186.09569786 75.10749496 187.91991866 75.109375 189.74414062 C75.13093155 191.0086203 75.13093155 191.0086203 75.15292358 192.29864502 C75.101676 199.02256248 73.32950692 204.24659401 68.90234375 209.37695312 C68.34417969 209.82296875 67.78601563 210.26898438 67.2109375 210.72851562 C66.65535156 211.19 66.09976562 211.65148437 65.52734375 212.12695312 C61.00025978 215.08226366 57.33965565 215.49800694 52.06201172 215.47705078 C44.91013143 215.21720502 44.91013143 215.21720502 38.640625 217.94726562 C37.48216699 219.96648425 37.48216699 219.96648425 36.6171875 222.15820312 C34.50534093 226.94391996 30.0002278 230.26285548 25.33789062 232.42504883 C16.99664624 235.44368536 8.48225422 237.37428318 -0.18847656 239.20532227 C-2.0979697 239.61200896 -4.00222554 240.04304367 -5.90625 240.47460938 C-7.02499512 240.71622803 -8.14374023 240.95784668 -9.29638672 241.20678711 C-14.32632713 243.09472303 -17.13997264 247.01745148 -20.4140625 251.10351562 C-27.94038413 259.73760754 -37.82722446 265.98265862 -48.3515625 270.35351562 C-49.0115625 270.35351562 -49.6715625 270.35351562 -50.3515625 270.35351562 C-50.3515625 275.96351563 -50.3515625 281.57351563 -50.3515625 287.35351562 C-49.05734375 287.60359375 -47.763125 287.85367187 -46.4296875 288.11132812 C-41.35585401 289.24171624 -36.81889232 291.07773305 -32.1015625 293.22851562 C-31.32554687 293.56753906 -30.54953125 293.9065625 -29.75 294.25585938 C-25.4999445 296.16330749 -21.71951025 298.05109215 -18.3515625 301.35351562 C-16.88644622 307.42328307 -16.88644622 307.42328307 -18.3515625 310.35351562 C-17.78566406 310.61003906 -17.21976563 310.8665625 -16.63671875 311.13085938 C-13.25221104 312.94171564 -10.44552919 315.3835359 -7.47265625 317.79492188 C-5.34302899 319.52687152 -5.34302899 319.52687152 -2.3515625 320.35351562 C-0.77375 319.92039062 -0.77375 319.92039062 0.8359375 319.47851562 C4.97167755 319.34291759 5.41219666 319.47669579 8.3984375 321.97851562 C9.85000471 323.4021143 11.26283459 324.86563622 12.6484375 326.35351562 C13.91880859 327.70509766 13.91880859 327.70509766 15.21484375 329.08398438 C46.31764466 363.43190572 64.97892228 419.7408317 63.98828125 465.55664062 C63.54384816 470.52203106 62.4115861 474.01217049 58.6484375 477.35351562 C52.44634866 481.81556161 47.34287514 481.92211692 39.83750916 481.8614502 C38.65153139 481.86769016 37.46555363 481.87393012 36.24363714 481.88035917 C32.96437644 481.89352591 29.68571098 481.88882497 26.40646541 481.8764143 C22.86516822 481.86734965 19.3239504 481.88134045 15.78266907 481.89233398 C8.8506124 481.91010823 1.91872909 481.90628432 -5.01333434 481.89468342 C-10.6471887 481.88564577 -16.28099452 481.88442653 -21.91485405 481.88877869 C-22.71702804 481.88939162 -23.51920204 481.89000455 -24.34568433 481.89063606 C-25.97532922 481.89191497 -27.60497409 481.89321182 -29.23461895 481.89452642 C-44.51070566 481.90592882 -59.78669631 481.89282349 -75.06276726 481.87132496 C-88.16925295 481.85345085 -101.27559694 481.85656129 -114.38208008 481.875 C-129.60546608 481.89640685 -144.82876793 481.90483381 -160.05216688 481.89255095 C-161.67547348 481.89127676 -163.29878009 481.89001927 -164.92208672 481.88877869 C-165.72076951 481.88816158 -166.5194523 481.88754448 -167.3423376 481.88690868 C-172.96968607 481.88345547 -178.59698116 481.88928341 -184.22432137 481.8986969 C-191.08174431 481.90991606 -197.93898411 481.90687854 -204.79638607 481.88557392 C-208.2949159 481.87506277 -211.79314038 481.87094248 -215.29166794 481.88417053 C-219.08395769 481.89506928 -222.87538339 481.88142913 -226.6676178 481.8614502 C-227.77374092 481.87037308 -228.87986404 481.87929597 -230.01950604 481.88848925 C-237.2356678 481.81453497 -240.77526352 480.82787734 -245.99609375 475.75585938 C-251.526192 468.82011742 -250.87389841 461.90039766 -250.06933594 453.35644531 C-249.67391517 450.30331157 -249.21792861 447.26767984 -248.7265625 444.22851562 C-248.54762451 443.10960937 -248.36868652 441.99070312 -248.18432617 440.83789062 C-241.80728456 402.36585217 -229.85491169 364.3051146 -205.3515625 333.35351562 C-207.10318658 331.13371213 -207.99158022 330.4117444 -210.82836914 329.95288086 C-211.79637451 329.93942627 -212.76437988 329.92597168 -213.76171875 329.91210938 C-215.37143555 329.8724707 -215.37143555 329.8724707 -217.01367188 329.83203125 C-218.13580078 329.81849609 -219.25792969 329.80496094 -220.4140625 329.79101562 C-233.50681736 329.58294948 -245.28129219 329.11796517 -255.20703125 319.56835938 C-260.23302222 313.52476036 -261.91699335 306.48192257 -262.7265625 298.79101562 C-261.6542251 288.96125609 -258.16965125 281.1243484 -250.3984375 274.75195312 C-240.6184208 268.16776865 -229.61494749 269.00912004 -218.265625 268.96289062 C-217.05132812 268.9396875 -215.83703125 268.91648437 -214.5859375 268.89257812 C-213.48475586 268.88436035 -212.38357422 268.87614258 -211.24902344 268.86767578 C-208.29045633 268.54649825 -208.29045633 268.54649825 -206 266.75439453 C-203.7862978 263.5302317 -203.80819047 261.29456609 -203.7421875 257.40039062 C-203.72565125 256.74016907 -203.70911499 256.07994751 -203.69207764 255.39971924 C-203.64367799 253.30088936 -203.62224731 251.20278341 -203.6015625 249.10351562 C-203.57339567 247.67639603 -203.54346722 246.24931004 -203.51171875 244.82226562 C-203.43792487 241.33283954 -203.38829971 237.8435509 -203.3515625 234.35351562 C-205.00744385 234.14311646 -205.00744385 234.14311646 -206.69677734 233.9284668 C-214.39703242 232.71710402 -219.87234462 227.46154001 -224.3515625 221.35351562 C-226.3515625 218.35351562 -226.3515625 218.35351562 -226.3515625 215.35351562 C-227.53492188 215.41152344 -228.71828125 215.46953125 -229.9375 215.52929688 C-247.57687446 216.14327849 -247.57687446 216.14327849 -254.3515625 210.35351562 C-259.86249949 203.86538156 -261.51076707 198.49444732 -261.58984375 190.06445312 C-261.5979155 189.24659332 -261.60598724 188.42873352 -261.61430359 187.58609009 C-261.62813267 185.85282502 -261.63886009 184.11953285 -261.64672852 182.38623047 C-261.65821498 180.62508081 -261.6786137 178.86396505 -261.70825195 177.10302734 C-262.05441306 156.5306147 -262.05441306 156.5306147 -255.67138672 149.50390625 C-251.93679947 145.87097842 -248.40817892 144.38547816 -243.3515625 143.35351562 C-243.50238281 142.69996094 -243.65320313 142.04640625 -243.80859375 141.37304688 C-250.57955502 103.71870831 -238.85136164 64.21170585 -217.87133789 33.02612305 C-194.40004005 -0.70704455 -158.31164961 -21.84646737 -118.3515625 -29.64648438 C-76.6411266 -35.51370196 -33.41521629 -26.34046356 0 0 Z M-180.3515625 16.35351562 C-180.86267578 16.78776855 -181.37378906 17.22202148 -181.90039062 17.66943359 C-209.33203871 41.1614301 -226.05429765 74.75418963 -228.95825195 110.70751953 C-229.6575704 121.17942615 -229.66503165 132.08014416 -227.3515625 142.35351562 C-226.3615625 142.35351562 -225.3715625 142.35351562 -224.3515625 142.35351562 C-222.9974693 140.36751226 -221.66698626 138.3653402 -220.3515625 136.35351562 C-219.06693115 135.61391602 -219.06693115 135.61391602 -217.75634766 134.859375 C-213.88070456 130.82083685 -214.68339104 126.39659534 -214.75 121.00976562 C-214.74199371 119.88969116 -214.73398743 118.7696167 -214.72573853 117.61560059 C-214.70263796 114.02787339 -214.71212678 110.44127355 -214.7265625 106.85351562 C-214.73042676 103.29453096 -214.72678948 99.73605324 -214.70596313 96.17712402 C-214.69400804 93.96434471 -214.69631779 91.75142329 -214.71566772 89.53869629 C-214.67344542 77.67411205 -212.48477142 67.28723723 -204.3515625 58.35351562 C-199.9120847 54.19383685 -195.32235977 52.29746782 -189.51489258 50.62036133 C-178.18214612 47.25801053 -171.41345317 40.69720871 -163.31274414 32.31835938 C-160.14884313 29.14855042 -156.75967577 26.25542316 -153.3515625 23.35351562 C-152.49949219 22.6084375 -151.64742188 21.86335938 -150.76953125 21.09570312 C-135.65786005 8.44530236 -120.39857794 7.28475959 -101.34375 8.93945312 C-99.31845217 9.12676859 -97.2943064 9.3225231 -95.27050781 9.52539062 C-93.19426155 9.73172566 -91.11692066 9.92199058 -89.0390625 10.11132812 C-87.703033 10.24058907 -86.36709138 10.37076237 -85.03125 10.50195312 C-83.84257324 10.61716309 -82.65389648 10.73237305 -81.42919922 10.85107422 C-78.58975026 11.31463014 -76.7098638 11.73162008 -74.3515625 13.35351562 C-73.1015625 16.47851563 -73.1015625 16.47851563 -72.3515625 19.35351562 C-69.27240103 19.80617562 -66.1886966 20.20922274 -63.1015625 20.60351562 C-62.22886719 20.73242188 -61.35617188 20.86132812 -60.45703125 20.99414062 C-58.03215863 21.29030827 -55.78995362 21.51669939 -53.3515625 21.35351562 C-50.93124347 19.56523942 -50.93124347 19.56523942 -49.3515625 17.35351562 C-36.66716527 15.31495178 -22.61048697 25.24347956 -12.59375 32.29492188 C9.5585773 49.48207236 23.20314927 73.14581923 27.27075195 100.83227539 C28.04203206 108.02307888 27.8930751 115.28350429 27.77539062 122.5078125 C27.66219489 128.85913666 27.66219489 128.85913666 30.1965332 134.45019531 C31.94447512 135.93275 33.7183047 137.12670302 35.6484375 138.35351562 C36.6595597 139.67843437 37.66507652 141.00786375 38.6484375 142.35351562 C39.3084375 142.35351562 39.9684375 142.35351562 40.6484375 142.35351562 C48.76460235 126.12118592 41.64119914 96.61642805 36.93359375 80.13085938 C31.29903508 63.56970972 23.18311732 47.56398855 11.6484375 34.35351562 C10.90335938 33.49886719 10.15828125 32.64421875 9.390625 31.76367188 C7.17315897 29.26432457 4.91968901 26.8039668 2.6484375 24.35351562 C2.12121094 23.76054688 1.59398437 23.16757812 1.05078125 22.55664062 C-22.94093258 -3.21450978 -58.3789272 -13.58219679 -92.3515625 -15.64648438 C-124.11866119 -15.64648438 -156.22168134 -4.3337516 -180.3515625 16.35351562 Z M-187.3515625 238.35351562 C-187.35567139 239.17964355 -187.35978027 240.00577148 -187.36401367 240.85693359 C-187.39124496 243.97001422 -187.44059089 247.08180106 -187.50415039 250.19433594 C-187.53831015 252.18467961 -187.54775394 254.17539867 -187.55664062 256.16601562 C-187.76795891 265.46402029 -189.06236288 272.95144233 -195.7265625 279.79101562 C-204.92500886 285.26628132 -213.1239308 284.78767135 -223.68164062 284.79296875 C-231.02497629 284.90268371 -236.15315906 285.27403112 -242.3515625 289.35351562 C-245.1384487 292.76969871 -246.17562812 295.95515615 -246.3515625 300.35351562 C-244.84990239 304.93753068 -243.24735265 308.43167302 -239.3515625 311.35351562 C-231.49278424 314.42387046 -222.98110923 313.70947635 -214.66601562 313.74414062 C-207.37864424 313.88435728 -202.57251826 314.50416409 -196.3515625 318.35351562 C-195.02429307 319.03217465 -193.69231189 319.70189203 -192.3515625 320.35351562 C-191.73152344 319.74765625 -191.11148438 319.14179688 -190.47265625 318.51757812 C-174.50536568 303.41024353 -155.68381307 294.3262334 -135.3515625 286.35351562 C-135.3515625 281.07351563 -135.3515625 275.79351562 -135.3515625 270.35351562 C-136.40214844 269.85722656 -137.45273438 269.3609375 -138.53515625 268.84960938 C-150.65462654 263.02671803 -162.4031943 256.20287771 -170.09765625 244.75585938 C-173.03361486 241.62654474 -176.04944341 240.92574106 -180.1015625 240.04101562 C-180.79894531 239.87279297 -181.49632812 239.70457031 -182.21484375 239.53125 C-183.92311142 239.12173378 -185.63687674 238.7352678 -187.3515625 238.35351562 Z " fill="#010101" transform="translate(285.3515625,30.646484375)"/>
<path d="M0 0 C2.76622003 1.06560363 4.14279683 2.18227452 6.234375 4.26953125 C17.25959685 14.45508389 35.41781784 30.03361858 51.109375 30.76953125 C55.52081682 30.25274095 59.3107062 29.16292003 62.484375 25.95703125 C64.46828993 22.74449895 66.04097022 19.44248795 67.484375 15.95703125 C68.639375 16.34890625 69.794375 16.74078125 70.984375 17.14453125 C72.81764027 17.74890442 74.65098545 18.35303521 76.484375 18.95703125 C78.30001953 19.57191406 78.30001953 19.57191406 80.15234375 20.19921875 C97.44451144 25.94973061 114.37207516 26.45447928 132.484375 26.95703125 C145.59046971 58.5282465 143.17972052 94.55903464 130.484375 125.95703125 C126.89043441 133.75502437 121.46995996 139.8687776 115.484375 145.95703125 C114.84628906 146.60800781 114.20820313 147.25898438 113.55078125 147.9296875 C96.42627308 164.12854658 71.80154911 165.56901798 49.53515625 165.20703125 C29.01652383 164.56851772 9.89107429 157.62969235 -4.42578125 142.484375 C-23.78824496 119.06846094 -27.19873603 87.24692434 -25.515625 57.95703125 C-23.52989076 38.77524796 -16.56439209 16.8594036 -4.58984375 1.484375 C-2.515625 -0.04296875 -2.515625 -0.04296875 0 0 Z " fill="#FDCBBC" transform="translate(134.515625,128.04296875)"/>
<path d="M0 0 C0.01458252 0.67466309 0.02916504 1.34932617 0.04418945 2.04443359 C0.11949583 5.15514582 0.21587844 8.26487969 0.3125 11.375 C0.34633789 12.96634766 0.34633789 12.96634766 0.38085938 14.58984375 C0.8345913 28.03680821 4.89052148 39.95863243 14.8671875 49.3984375 C26.11610978 57.84543042 37.43706247 59.10326029 51 58 C57.41398105 56.61377565 62.7761083 53.98010796 68 50 C68.804375 49.40445313 69.60875 48.80890625 70.4375 48.1953125 C73.08688461 45.92556532 74.75270363 43.80740938 76.625 40.875 C77.47964844 39.57175781 77.47964844 39.57175781 78.3515625 38.2421875 C82.71600451 29.6580954 83.49361137 21.40324119 83.6875 11.875 C83.72166016 10.72773438 83.75582031 9.58046875 83.79101562 8.3984375 C83.87266424 5.59905626 83.94208092 2.79995551 84 0 C89.73580266 1.58447195 94.96491427 3.27005556 100.1875 6.1875 C104.84186625 8.59843779 107.80507315 9.88424287 113 9 C113.99 8.34 114.98 7.68 116 7 C119.81371832 7.27924716 122.22342102 9.47824467 125.125 11.8125 C126.42824219 12.84310547 126.42824219 12.84310547 127.7578125 13.89453125 C129.87212083 15.87991834 130.93490881 17.33727202 132 20 C131.67 20.33 131.34 20.66 131 21 C130.32649231 23.70012347 130.32649231 23.70012347 131 27 C132.36297023 28.88089702 132.36297023 28.88089702 134.13671875 30.72265625 C156.16131815 55.03556191 169.54402519 84.20978521 177.125 115.9375 C177.38313477 117.00393738 177.38313477 117.00393738 177.64648438 118.09191895 C185.10810911 149.08782708 185.10810911 149.08782708 184 161 C182 163 182 163 179.42691612 163.24609566 C178.32998247 163.24425207 177.23304882 163.24240849 176.10287476 163.24050903 C174.21818733 163.24463303 174.21818733 163.24463303 172.29542542 163.24884033 C170.89535428 163.24176157 169.4952841 163.23449194 168.09521484 163.22705078 C166.62695829 163.22648689 165.15870117 163.2268028 163.69044495 163.22793579 C159.69684001 163.22851116 155.70335447 163.21672721 151.70977736 163.20278788 C147.53907846 163.19031107 143.36837703 163.18911243 139.19766235 163.18673706 C131.29640017 163.1805133 123.39519312 163.1640904 115.49395525 163.14403808 C106.50013369 163.12170691 97.50630952 163.11069266 88.51246715 163.10064721 C70.00828013 163.07972492 51.50414449 163.04453159 33 163 C32.99857498 162.0155188 32.99714996 161.0310376 32.99568176 160.01672363 C32.97897952 150.71838785 32.93610759 141.4204879 32.86790943 132.12238312 C32.8336845 127.34259319 32.80853646 122.56312136 32.80444336 117.78320312 C32.80015075 113.16634789 32.77160854 108.55020968 32.72656822 103.93357849 C32.71362391 102.17626631 32.70927464 100.41886819 32.71384621 98.66151428 C33.13618497 86.81714064 33.13618497 86.81714064 28.46150208 76.33576965 C24.19323578 72.43470055 20.14791937 71.62256951 14.5078125 71.48828125 C13.30898437 71.45283203 12.11015625 71.41738281 10.875 71.38085938 C9.6375 71.35830078 8.4 71.33574219 7.125 71.3125 C5.86429688 71.27833984 4.60359375 71.24417969 3.3046875 71.20898438 C0.20321384 71.12674833 -2.89798569 71.05751532 -6 71 C-6.17958252 70.40034424 -6.35916504 69.80068848 -6.54418945 69.18286133 C-9.03360568 61.24227423 -12.55505313 55.54065734 -20.125 51.5625 C-24.34054196 49.6121559 -28.41645957 48.97041474 -33.03125 48.859375 C-33.75957031 48.84003906 -34.48789063 48.82070313 -35.23828125 48.80078125 C-36.745824 48.76693314 -38.25379831 48.7486981 -39.76171875 48.74609375 C-43.94466239 48.60542839 -45.57539404 48.33745 -48.96875 45.640625 C-51.28464019 42.62996775 -51.90619644 40.5315535 -52.5625 36.8125 C-51.70271135 30.98504361 -48.38761958 28.68973605 -44 25 C-43.50129395 24.5767041 -43.00258789 24.1534082 -42.48876953 23.71728516 C-14.28974712 0 -14.28974712 0 0 0 Z " fill="#7FB5FB" transform="translate(150,334)"/>
<path d="M0 0 C7.03482474 -0.23668569 13.1834265 0.2120463 20 2 C20.165 3.0725 20.33 4.145 20.5 5.25 C21.17457625 7.62005272 21.56580631 8.70299922 23.62182617 10.109375 C24.27642822 10.40328125 24.93103027 10.6971875 25.60546875 11 C26.32460449 11.33290039 27.04374023 11.66580078 27.78466797 12.00878906 C28.51572754 12.33588867 29.24678711 12.66298828 30 13 C31.30005904 13.61583434 32.59830143 14.23552108 33.89453125 14.859375 C34.53438965 15.16601074 35.17424805 15.47264648 35.83349609 15.78857422 C57.15108688 26.14493648 73.07650296 42.25349619 81.81640625 64.4375 C86.49666511 78.52461579 86.37672273 92.30201767 86 107 C84.57782592 106.85445587 83.15601997 106.70531213 81.734375 106.5546875 C80.94256836 106.47202637 80.15076172 106.38936523 79.33496094 106.30419922 C75.55322648 105.81151403 73.22373102 105.10782413 70 103 C67.68125295 99.13150808 65 94.60753589 65 90 C63.99324219 90.01571045 62.98648438 90.0314209 61.94921875 90.04760742 C58.13224632 90.10284552 54.31530726 90.13668273 50.49804688 90.16479492 C48.86126726 90.17967183 47.22452593 90.1999798 45.58789062 90.22631836 C24.93472683 90.54981693 6.94850187 86.82390571 -11 76 C-11.33 75.67 -11.66 75.34 -12 75 C-16.04801273 74.58680634 -16.04801273 74.58680634 -20 75 C-23.52250232 78.21193367 -23.72308632 82.24220482 -24.1875 86.75 C-24.26935547 87.44738281 -24.35121094 88.14476562 -24.43554688 88.86328125 C-24.63477133 90.57426776 -24.81889929 92.28700037 -25 94 C-30.72846352 93.53015757 -34.6123515 91.22350269 -39.375 88.25 C-40.15721924 87.76845459 -40.93943848 87.28690918 -41.74536133 86.79077148 C-48.08899186 82.78692607 -53.91479958 78.29350392 -59.60888672 73.41699219 C-65.94123769 68.01710468 -72.00180011 63.55993334 -80.5625 63.73828125 C-85.61515467 64.28079385 -89.16310691 66.10833717 -92.703125 69.75390625 C-99.72722911 78.92791139 -105.0686566 90.867745 -108.98193359 101.72412109 C-110 104 -110 104 -112.42578125 105.14453125 C-113.37839844 105.36496094 -114.33101562 105.58539063 -115.3125 105.8125 C-116.72982422 106.16248047 -116.72982422 106.16248047 -118.17578125 106.51953125 C-120.85605163 106.97551086 -123.29002943 107.03502431 -126 107 C-126.07629277 100.43472772 -126.1287016 93.86957052 -126.16479492 87.30395508 C-126.17984741 85.07214078 -126.20029398 82.8403559 -126.22631836 80.60864258 C-126.26285688 77.39396896 -126.27976215 74.17968772 -126.29296875 70.96484375 C-126.31619453 69.47693581 -126.31619453 69.47693581 -126.33988953 67.95896912 C-126.3416095 60.82043928 -125.43106127 55.98673242 -120.8125 50.3125 C-115.66854271 46.08302401 -110.34556987 44.0759672 -104 42.1875 C-97.9616716 40.23525849 -94.43201827 37.42329383 -90 33 C-88.38160791 31.53433696 -86.75621606 30.07637702 -85.125 28.625 C-82.57753693 26.33422786 -80.03943809 24.03657213 -77.52734375 21.70703125 C-66.81878622 11.84701235 -57.22173696 3.39723055 -42.125 3.6875 C-41.18479004 3.69370361 -40.24458008 3.69990723 -39.27587891 3.70629883 C-30.52301419 3.83470096 -21.82248247 4.57726737 -13.12548828 5.55151367 C-11.62091064 5.70197144 -11.62091064 5.70197144 -10.0859375 5.85546875 C-9.1995459 5.95496826 -8.3131543 6.05446777 -7.39990234 6.15698242 C-4.36484951 5.95845353 -3.16043087 5.10087239 -1 3 C-0.67 2.01 -0.34 1.02 0 0 Z " fill="#645D66" transform="translate(212,50)"/>
<path d="M0 0 C4.72683155 4.36322913 6.31678649 7.27813137 6.57794189 13.70756531 C6.58994442 15.10668549 6.59645909 16.50585932 6.59863281 17.9050293 C6.60359772 18.67144241 6.60856262 19.43785553 6.61367798 20.22749329 C6.62826588 22.75974431 6.63509705 25.29193263 6.640625 27.82421875 C6.64638056 29.59056092 6.65213824 31.35690308 6.65789795 33.12324524 C6.66839928 36.82785329 6.67424718 40.53243971 6.67773438 44.23706055 C6.68320804 48.96681769 6.70721555 53.69628536 6.73570633 58.42595196 C6.75440261 62.07640903 6.75954209 65.72679746 6.76107025 69.37729836 C6.76408308 71.11988718 6.77206495 72.8624752 6.78525543 74.60501671 C6.87247678 87.0164628 6.53955995 97.23381352 -2.140625 107.03125 C-8.61477995 113.45100028 -17.19471787 116.30216885 -26.25 116.6875 C-35.84036175 116.14398773 -44.85413901 112.39189315 -51.38671875 105.2578125 C-57.65160092 97.2181332 -58.27184673 90.32958816 -57.5625 80.25 C-56.24196669 72.84300862 -51.42806589 67.08283586 -45.45703125 62.70703125 C-36.4606957 57.27738449 -26.81533534 56.23193862 -16.5625 58.25 C-14.2525 59.24 -11.9425 60.23 -9.5625 61.25 C-9.5625 45.74 -9.5625 30.23 -9.5625 14.25 C-24.03953792 17.03053509 -24.03953792 17.03053509 -38.51611328 19.81347656 C-51.85057999 22.37331684 -65.19837264 24.84982371 -78.5625 27.25 C-78.56392502 28.25509613 -78.56535004 29.26019226 -78.56681824 30.29574585 C-78.58353719 39.79947939 -78.62645985 49.30278742 -78.69459057 58.80629539 C-78.72878188 63.69140047 -78.75395829 68.57619542 -78.75805664 73.46142578 C-78.76235649 78.18202391 -78.79095828 82.90192338 -78.83593178 87.62230301 C-78.84885308 89.41703842 -78.85323362 91.21185768 -78.84865379 93.00663376 C-78.82634475 104.41093587 -79.26989101 112.98243672 -86.9375 122.0625 C-95.66812285 129.33801905 -103.70681131 132.92353125 -115.3359375 132.0390625 C-125.39392955 130.5458592 -132.40079124 126.45851015 -138.8984375 118.640625 C-143.1472252 112.53673281 -144.64131537 105.59793134 -143.5625 98.25 C-141.22060653 89.22237841 -137.7206096 83.0899605 -129.75 78 C-122.02895745 73.64979609 -114.4267002 72.1779966 -105.5625 73.25 C-103.99136454 73.73043686 -102.42903004 74.240241 -100.87475586 74.77270508 C-100.06654892 75.04786453 -99.25834198 75.32302399 -98.42564392 75.60652161 C-97.81080643 75.81886948 -97.19596893 76.03121735 -96.5625 76.25 C-96.55663376 75.58680756 -96.55076752 74.92361511 -96.54472351 74.24032593 C-96.48072292 67.32937152 -96.39628543 60.4188799 -96.30004883 53.50830078 C-96.26682219 50.9302379 -96.23878327 48.35210267 -96.21606445 45.77392578 C-96.18247793 42.06511646 -96.13015756 38.3569688 -96.07421875 34.6484375 C-96.06782883 33.49822113 -96.0614389 32.34800476 -96.05485535 31.16293335 C-95.92792078 24.23290672 -95.37649137 19.42708703 -90.625 14.0625 C-82.29457014 9.13224559 -71.09978947 8.29788356 -61.6875 6.55078125 C-59.75801514 6.19091377 -59.75801514 6.19091377 -57.78955078 5.82377625 C-55.08743926 5.3209603 -52.38472499 4.82153219 -49.68164062 4.32397461 C-46.2509714 3.69174139 -42.82297587 3.04607842 -39.39541626 2.39722919 C-36.07785453 1.7722541 -32.75751494 1.16258799 -29.4375 0.55078125 C-28.22465332 0.31958084 -27.01180664 0.08838043 -25.76220703 -0.14982605 C-7.16646501 -3.52036878 -7.16646501 -3.52036878 0 0 Z " fill="#000000" transform="translate(482.5625,235.75)"/>
<path d="M0 0 C0.66 0 1.32 0 2 0 C2.53625 0.886875 3.0725 1.77375 3.625 2.6875 C6.397842 7.08652002 10.89574459 10.09563283 15.88134766 11.5480957 C20.0326738 12.43356525 24.3869259 12.32667875 28.625 12.4296875 C34.25354779 12.66835384 38.43620416 13.86350347 42.875 17.5625 C44 19 44 19 44 21 C43.13117188 21.02578125 42.26234375 21.0515625 41.3671875 21.078125 C32.4329858 21.40704065 32.4329858 21.40704065 25 26 C20.41213138 31.08385441 19.84721315 34.94810889 19.79467773 41.5925293 C19.78477814 42.36349945 19.77487854 43.1344696 19.76467896 43.92880249 C19.73309044 46.47724333 19.708317 49.02570282 19.68359375 51.57421875 C19.66302194 53.3411355 19.6420254 55.10804736 19.62062073 56.87495422 C19.56542355 61.52572667 19.51600388 66.17654336 19.46777344 70.82739258 C19.41754124 75.57311949 19.36186414 80.31878214 19.30664062 85.06445312 C19.19908784 94.37624719 19.09763644 103.68809705 19 113 C11.61271898 113.02526692 4.22544902 113.0428316 -3.16186523 113.05493164 C-5.67716895 113.05997363 -8.19246972 113.06680703 -10.70776367 113.07543945 C-14.31429775 113.08751094 -17.92079323 113.09322949 -21.52734375 113.09765625 C-23.22575661 113.10539818 -23.22575661 113.10539818 -24.95848083 113.11329651 C-25.99948441 113.11337204 -27.04048798 113.11344757 -28.11303711 113.11352539 C-29.03459091 113.115746 -29.95614471 113.11796661 -30.90562439 113.12025452 C-33 113 -33 113 -34 112 C-37.93851277 77.32817443 -20.77127406 27.74484329 0 0 Z " fill="#7EB4F9" transform="translate(85,384)"/>
<path d="M0 0 C5.82635851 1.54227137 10.86275518 3.34718845 16.1875 6.1875 C20.84186625 8.59843779 23.80507315 9.88424287 29 9 C29.99 8.34 30.98 7.68 32 7 C35.81371832 7.27924716 38.22342102 9.47824467 41.125 11.8125 C41.99382812 12.49957031 42.86265625 13.18664062 43.7578125 13.89453125 C45.87212083 15.87991834 46.93490881 17.33727202 48 20 C47.505 20.495 47.505 20.495 47 21 C46.32649231 23.70012347 46.32649231 23.70012347 47 27 C48.36297023 28.88089702 48.36297023 28.88089702 50.13671875 30.72265625 C72.16131815 55.03556191 85.54402519 84.20978521 93.125 115.9375 C93.38313477 117.00393738 93.38313477 117.00393738 93.64648438 118.09191895 C101.10810911 149.08782708 101.10810911 149.08782708 100 161 C98 163 98 163 95.47802734 163.22705078 C94.4411377 163.21657715 93.40424805 163.20610352 92.3359375 163.1953125 C91.21445312 163.18886719 90.09296875 163.18242187 88.9375 163.17578125 C87.1740625 163.15064453 87.1740625 163.15064453 85.375 163.125 C84.19164062 163.11597656 83.00828125 163.10695313 81.7890625 163.09765625 C78.85917477 163.07402812 75.9296866 163.04108514 73 163 C72.90295776 162.05253906 72.90295776 162.05253906 72.80395508 161.0859375 C67.16578815 107.34670526 51.30893311 50.70464464 8.234375 14.6875 C6.18414246 13.08857651 4.0966545 11.53754664 2 10 C1.67 13.3 1.34 16.6 1 20 C0.67 20 0.34 20 0 20 C0 13.4 0 6.8 0 0 Z " fill="#61A3F9" transform="translate(234,334)"/>
<path d="M0 0 C0.93767212 -0.00315216 1.87534424 -0.00630432 2.84143066 -0.009552 C3.86119995 -0.00752777 4.88096924 -0.00550354 5.93164062 -0.00341797 C7.49078186 -0.00485306 7.49078186 -0.00485306 9.0814209 -0.00631714 C11.28393616 -0.0069991 13.48645342 -0.00514374 15.68896484 -0.00097656 C19.07328782 0.00437146 22.45747806 -0.00092105 25.84179688 -0.00732422 C27.97591175 -0.00666344 30.11002655 -0.00538228 32.24414062 -0.00341797 C33.26390991 -0.0054422 34.2836792 -0.00746643 35.33435059 -0.009552 C36.74085876 -0.00482376 36.74085876 -0.00482376 38.17578125 0 C39.42035095 0.00119339 39.42035095 0.00119339 40.69006348 0.00241089 C42.58789062 0.12939453 42.58789062 0.12939453 43.58789062 1.12939453 C43.68812617 3.46653778 43.72408265 5.77413778 43.71728516 8.11181641 C43.71903748 8.84187393 43.72078979 9.57193146 43.72259521 10.32411194 C43.72701362 12.74881331 43.72407579 15.17344235 43.72070312 17.59814453 C43.72137617 19.27583836 43.7223462 20.95353209 43.72360229 22.63122559 C43.72507925 26.15194627 43.72292479 29.67264163 43.71826172 33.19335938 C43.71256443 37.71649949 43.71584345 42.23958027 43.72183418 46.7627182 C43.72543986 50.22841848 43.72430118 53.6941046 43.72170639 57.1598053 C43.72103714 58.82804878 43.72186548 60.49629352 43.72418594 62.16453552 C43.72671258 64.49204947 43.72287175 66.81946601 43.71728516 69.14697266 C43.71930939 69.84311172 43.72133362 70.53925079 43.72341919 71.25648499 C43.70215336 76.0151318 43.70215336 76.0151318 42.58789062 77.12939453 C41.1198377 77.22762197 39.64711602 77.25737823 38.17578125 77.25878906 C37.23810913 77.26194122 36.30043701 77.26509338 35.33435059 77.26834106 C34.3145813 77.26631683 33.29481201 77.2642926 32.24414062 77.26220703 C30.68499939 77.26364212 30.68499939 77.26364212 29.09436035 77.2651062 C26.89184509 77.26578816 24.68932783 77.2639328 22.48681641 77.25976562 C19.10249343 77.25441761 15.71830319 77.25971012 12.33398438 77.26611328 C10.1998695 77.2654525 8.0657547 77.26417135 5.93164062 77.26220703 C4.91187134 77.26423126 3.89210205 77.26625549 2.84143066 77.26834106 C1.43492249 77.26361282 1.43492249 77.26361282 0 77.25878906 C-0.82971313 77.25799347 -1.65942627 77.25719788 -2.51428223 77.25637817 C-4.41210938 77.12939453 -4.41210938 77.12939453 -5.41210938 76.12939453 C-5.51234492 73.79225128 -5.5483014 71.48465128 -5.54150391 69.14697266 C-5.54325623 68.41691513 -5.54500854 67.6868576 -5.54681396 66.93467712 C-5.55123237 64.50997575 -5.54829454 62.08534671 -5.54492188 59.66064453 C-5.54559492 57.9829507 -5.54656495 56.30525697 -5.54782104 54.62756348 C-5.549298 51.10684279 -5.54714354 47.58614743 -5.54248047 44.06542969 C-5.53678318 39.54228958 -5.5400622 35.01920879 -5.54605293 30.49607086 C-5.54965861 27.03037058 -5.54851993 23.56468446 -5.54592514 20.09898376 C-5.54525589 18.43074029 -5.54608423 16.76249554 -5.54840469 15.09425354 C-5.55093133 12.7667396 -5.5470905 10.43932306 -5.54150391 8.11181641 C-5.54352814 7.41567734 -5.54555237 6.71953827 -5.54763794 6.00230408 C-5.52352099 0.60566382 -5.35947546 0.00513908 0 0 Z " fill="#DAE7F9" transform="translate(124.412109375,419.87060546875)"/>
<path d="M0 0 C0.70496613 0.07064667 1.40993225 0.14129333 2.13626099 0.21408081 C7.67218678 0.74702242 13.118871 1.12762586 18.6796875 1.1328125 C19.3403421 1.13376923 20.0009967 1.13472595 20.68167114 1.13571167 C22.05438331 1.13638258 23.42709888 1.13460583 24.79980469 1.13037109 C26.89264995 1.12495432 28.98528574 1.13037977 31.078125 1.13671875 C32.42447963 1.13605878 33.77083414 1.13477931 35.1171875 1.1328125 C36.31972168 1.13168457 37.52225586 1.13055664 38.76123047 1.12939453 C41.89432547 1.09101435 41.89432547 1.09101435 44.49267578 0.49169922 C47.68792619 -0.13490588 50.75276543 -0.06367127 54 0 C54.10196962 7.07995205 54.17170349 14.15971257 54.21972656 21.24023438 C54.23976034 23.64557981 54.26699522 26.05087703 54.30175781 28.45605469 C54.35063808 31.92655378 54.37305205 35.39640526 54.390625 38.8671875 C54.41127014 39.93113739 54.43191528 40.99508728 54.45318604 42.09127808 C54.45580547 50.93737565 52.77026787 58.3786757 46.5625 64.9375 C39.08538023 71.72761945 32.60043589 72.48511897 22.69921875 72.265625 C14.33584843 71.66508732 10.22404517 67.68108875 4.76171875 61.609375 C-0.16089461 54.31823149 -0.41606991 47.60327819 -0.29296875 39.0625 C-0.28872391 37.94182129 -0.28447906 36.82114258 -0.28010559 35.66650391 C-0.26340311 32.11075126 -0.22576568 28.55557941 -0.1875 25 C-0.17244231 22.57943531 -0.1587558 20.15886167 -0.14648438 17.73828125 C-0.1135272 11.82532492 -0.06341202 5.91270397 0 0 Z " fill="#FECCBD" transform="translate(165,306)"/>
<path d="M0 0 C-0.144375 1.03253906 -0.28875 2.06507813 -0.4375 3.12890625 C-2.70856081 20.47448614 -2.85251858 37.3639409 -0.25 54.6875 C-0.09321777 55.73744141 0.06356445 56.78738281 0.22509766 57.86914062 C1.2908595 64.31480289 2.95291514 70.2833218 5.20410156 76.41723633 C6 79 6 79 6 83 C-3.47277621 82.34670509 -15.08386608 81.02057218 -22 74 C-26.26903707 67.78092306 -26.58932502 61.93080472 -26.53125 54.5625 C-26.5350769 53.48299072 -26.53890381 52.40348145 -26.54284668 51.29125977 C-26.54555738 49.01870791 -26.53825553 46.7461244 -26.52148438 44.47363281 C-26.50006405 41.01035493 -26.52131623 37.54915144 -26.546875 34.0859375 C-26.54423158 31.86978712 -26.5391063 29.65363803 -26.53125 27.4375 C-26.53934692 26.41019775 -26.54744385 25.38289551 -26.55578613 24.32446289 C-26.4536294 16.42804123 -24.76801835 11.11402064 -19.5 5.1875 C-14.15598552 1.13153004 -6.53797434 0 0 0 Z " fill="#7FB4FA" transform="translate(97,171)"/>
<path d="M0 0 C7.24379412 0.46734156 15.33501283 1.31823943 20.70703125 6.71484375 C23.89049613 11.05426418 25.11757566 14.61185552 25.17700195 19.89526367 C25.19625481 21.38777901 25.19625481 21.38777901 25.21589661 22.91044617 C25.22328354 23.98542862 25.23067047 25.06041107 25.23828125 26.16796875 C25.246353 27.27674881 25.25442474 28.38552887 25.26274109 29.52790833 C25.27657951 31.877395 25.28730274 34.22690175 25.29516602 36.57641602 C25.31234953 40.15615375 25.35623591 43.73496094 25.40039062 47.31445312 C25.41052035 49.59895155 25.41903558 51.88345782 25.42578125 54.16796875 C25.44328934 55.23283005 25.46079742 56.29769135 25.47883606 57.39482117 C25.46032804 63.78926276 24.72679647 68.68518625 21 74 C16.04605117 78.8269245 10.58032166 80.21828483 3.9375 81.625 C2.12572266 82.01558594 2.12572266 82.01558594 0.27734375 82.4140625 C-3 83 -3 83 -7 83 C-5.95046658 78.10217738 -4.80956327 73.25245162 -3.52929688 68.40917969 C2.2914975 46.03885741 2.18407779 22.93281676 0 0 Z " fill="#7EB4FA" transform="translate(288,171)"/>
<path d="M0 0 C3.63 0.33 7.26 0.66 11 1 C13.55895015 1.08246647 16.11941 1.1304245 18.6796875 1.1328125 C19.3403421 1.13376923 20.0009967 1.13472595 20.68167114 1.13571167 C22.05438331 1.13638258 23.42709888 1.13460583 24.79980469 1.13037109 C26.89264995 1.12495432 28.98528574 1.13037977 31.078125 1.13671875 C32.42447963 1.13605878 33.77083414 1.13477931 35.1171875 1.1328125 C36.31972168 1.13168457 37.52225586 1.13055664 38.76123047 1.12939453 C41.89432547 1.09101435 41.89432547 1.09101435 44.49267578 0.49169922 C47 0 47 0 54 0 C54 6.27 54 12.54 54 19 C46.1229819 21.2505766 46.1229819 21.2505766 42.73632812 21.25878906 C41.59979797 21.26824554 41.59979797 21.26824554 40.44030762 21.27789307 C39.2478241 21.27182037 39.2478241 21.27182037 38.03125 21.265625 C36.77254089 21.26849518 36.77254089 21.26849518 35.48840332 21.27142334 C33.72354836 21.27277745 31.95868318 21.26913541 30.19384766 21.26074219 C27.50790826 21.25003154 24.8226376 21.26066379 22.13671875 21.2734375 C20.41406104 21.27211577 18.69140374 21.26955309 16.96875 21.265625 C15.77626648 21.27169769 15.77626648 21.27169769 14.55969238 21.27789307 C13.42316223 21.26843658 13.42316223 21.26843658 12.26367188 21.25878906 C11.60749878 21.25719788 10.95132568 21.25560669 10.27526855 21.25396729 C7.11317054 20.90101139 4.05931502 19.87409 1 19 C1 29.56 1 40.12 1 51 C0.67 51 0.34 51 0 51 C0 34.17 0 17.34 0 0 Z " fill="#E9AD9C" transform="translate(165,306)"/>
<path d="M0 0 C2.42179792 1.21089896 4.67780685 2.59792111 7 4 C12.55119006 5.69527361 17.64639306 6.0759346 23.0078125 3.625 C24.03648437 3.068125 25.06515625 2.51125 26.125 1.9375 C32.46729608 -1.48814782 32.46729608 -1.48814782 36.0625 -1.0625 C40.63514719 0.59143622 40.63514719 0.59143622 42 3 C42.5 6.375 42.5 6.375 42 10 C37.5701639 15.95259226 30.3980312 19.12954615 23.2578125 20.68359375 C11.32988607 22.35515437 1.70287262 20.28196979 -8.1875 13.5 C-10 12 -10 12 -12 9 C-11.8684799 5.31743715 -11.73329557 2.90251763 -9.375 0 C-5.8516127 -1.4835315 -3.67990833 -0.93556992 0 0 Z " fill="#060504" transform="translate(177,231)"/>
<path d="M0 0 C0 13.86 0 27.72 0 42 C-13 42 -13 42 -16.2734375 39.97265625 C-19.38900547 34.92282748 -18.73785342 28.32139413 -18.65185547 22.57739258 C-18.6250122 20.43847235 -18.65166828 18.30477649 -18.68359375 16.16601562 C-18.68029017 14.79686351 -18.67388499 13.42771462 -18.6640625 12.05859375 C-18.65842285 10.82423584 -18.6527832 9.58987793 -18.64697266 8.31811523 C-18 5 -18 5 -16.27099609 2.05883789 C-13 0 -13 0 0 0 Z " fill="#D67544" transform="translate(57,189)"/>
<path d="M0 0 C3.45792569 2.05692449 6.91859165 4.28749541 8.62109375 8.01171875 C9.15597064 12.74919977 9.13104079 14.99182466 6.99609375 19.26171875 C3.71871316 23.05658049 1.18199414 25.66742852 -3.96484375 26.359375 C-9.84354404 26.54459432 -14.29995928 26.01762614 -19.37890625 23.01171875 C-22.50002061 19.64420062 -24.25012388 17.35105542 -24.69140625 12.76171875 C-24.31452029 8.23908724 -23.33886706 6.42705814 -20.37890625 3.01171875 C-14.35221165 -1.66204441 -7.235081 -3.00570689 0 0 Z " fill="#DD7946" transform="translate(464.37890625,309.98828125)"/>
<path d="M0 0 C4.6761755 2.10559497 7.37970506 4.5941121 9.64453125 9.3125 C10.3022523 13.25882627 9.86586471 14.90262322 7.95703125 18.4375 C4.00242401 23.35403874 0.76623422 25.77017066 -5.43359375 26.5859375 C-12.74389553 26.92778614 -16.97556438 24.26991633 -22.35546875 19.5625 C-24.02488833 15.80630594 -24.20032954 12.32727848 -23.35546875 8.3125 C-18.16388857 -0.59215208 -9.74628308 -2.84468627 0 0 Z " fill="#DE7A46" transform="translate(378.35546875,325.6875)"/>
<path d="M0 0 C12 0 12 0 15.20849609 1.53540039 C17.5800938 4.798044 17.7215645 7.53899183 17.6640625 11.43359375 C17.66884613 12.14854507 17.67362976 12.8634964 17.67855835 13.60011292 C17.68195325 15.10883795 17.67277896 16.61763694 17.65185547 18.1262207 C17.62511473 20.42762589 17.65158746 22.72413819 17.68359375 25.02539062 C17.6802888 26.49480237 17.67388078 27.96421109 17.6640625 29.43359375 C17.67418365 30.11707382 17.68430481 30.80055389 17.69473267 31.50474548 C17.61094267 34.94653319 16.98905082 37.01816956 15.20849609 39.97290039 C12 42 12 42 0 42 C0 28.14 0 14.28 0 0 Z " fill="#DF7A47" transform="translate(328,189)"/>
<path d="M0 0 C0.33 0 0.66 0 1 0 C0.99887207 1.03930664 0.99774414 2.07861328 0.99658203 3.14941406 C1.00025758 7.01145813 1.04308558 10.87225399 1.09765625 14.73388672 C1.1158067 16.40405227 1.12338644 18.07436793 1.12011719 19.74462891 C1.11725697 22.14863978 1.15259432 24.54954474 1.1953125 26.953125 C1.18621857 27.69806213 1.17712463 28.44299927 1.16775513 29.21051025 C1.17150259 31.61108071 1.17150259 31.61108071 2 35 C5.30663457 37.89389153 8.50308657 39.43911724 12.7421875 40.484375 C13.58007812 40.69707031 14.41796875 40.90976563 15.28125 41.12890625 C16.1371875 41.33386719 16.993125 41.53882813 17.875 41.75 C19.19371094 42.08064453 19.19371094 42.08064453 20.5390625 42.41796875 C22.69034981 42.95579058 24.843682 43.48279017 27 44 C27.10957031 44.70125 27.21914062 45.4025 27.33203125 46.125 C28.10109615 50.72688428 28.89170427 55.09193866 30.625 59.4375 C32 63 32 63 32 67 C22.52722379 66.34670509 10.91613392 65.02057218 4 58 C-0.37483622 51.69547494 -0.53729229 45.7577046 -0.390625 38.28125 C-0.38213531 36.633526 -0.38213531 36.633526 -0.37347412 34.95251465 C-0.35120753 31.4678868 -0.30102752 27.98431344 -0.25 24.5 C-0.22992252 22.12761909 -0.21167394 19.75522195 -0.1953125 17.3828125 C-0.15137465 11.5881861 -0.08455981 5.79416841 0 0 Z " fill="#5D9AEC" transform="translate(71,187)"/>
<path d="M0 0 C0.33 0 0.66 0 1 0 C1.10176424 7.1165744 1.17161829 14.2329598 1.21972656 21.35009766 C1.23979065 23.7691143 1.26704843 26.18808276 1.30175781 28.60693359 C1.35050341 32.09224368 1.37302164 35.57691016 1.390625 39.0625 C1.41127014 40.13677246 1.43191528 41.21104492 1.45318604 42.31787109 C1.45508885 48.74482108 0.7565573 53.66143797 -3 59 C-7.95394883 63.8269245 -13.41967834 65.21828483 -20.0625 66.625 C-21.87427734 67.01558594 -21.87427734 67.01558594 -23.72265625 67.4140625 C-27 68 -27 68 -31 68 C-29.20327378 59.61527763 -27.10105676 51.31243331 -25 43 C-24.67 43.66 -24.34 44.32 -24 45 C-20.9149202 44.04722841 -17.83227215 43.08681206 -14.75 42.125 C-13.87730469 41.85558594 -13.00460937 41.58617187 -12.10546875 41.30859375 C-10.83896484 40.91220703 -10.83896484 40.91220703 -9.546875 40.5078125 C-8.77182617 40.26691895 -7.99677734 40.02602539 -7.19824219 39.77783203 C-4.64493977 38.9251694 -4.64493977 38.9251694 -1 37 C-0.67 24.79 -0.34 12.58 0 0 Z " fill="#60A0F4" transform="translate(312,186)"/>
<path d="M0 0 C0.74636719 -0.01546875 1.49273437 -0.0309375 2.26171875 -0.046875 C6.09975978 -0.01970303 8.12621364 0.27826233 11.49609375 2.27734375 C13.62134507 4.63459132 14.16437735 5.4522445 14.0625 8.5625 C13.5 12.5 13.5 12.5 12.05859375 14.21875 C8.11840982 16.19184974 4.34526612 15.9735467 0 15.9375 C-1.28197266 15.9674707 -1.28197266 15.9674707 -2.58984375 15.99804688 C-8.80227506 15.99320098 -8.80227506 15.99320098 -12.05859375 13.69140625 C-14.19887436 10.4374837 -14.11074381 8.30018369 -13.5 4.5 C-9.37970322 0.00221015 -5.7331121 -0.11882098 0 0 Z " fill="#060707" transform="translate(143.5,439.5)"/>
<path d="M0 0 C2.29679075 1.63234332 2.91216383 2.56155111 3.46875 5.33984375 C3.5522455 12.28040738 3.5522455 12.28040738 0.9375 15.6875 C-2.90761515 17.40553017 -4.98723185 17.18896834 -9 16 C-11.23918419 14.1942063 -11.84945187 12.91646172 -12.3125 10.09765625 C-12.52133602 6.59312677 -12.32891469 4.54819116 -10.5 1.5 C-6.74351164 -0.75389302 -4.35420619 -0.48380069 0 0 Z " fill="#090707" transform="translate(239,186)"/>
<path d="M0 0 C2.4375 1.5 2.4375 1.5 4 4 C4.71373503 8.99614519 4.76620649 10.86229946 1.9375 15.0625 C-1 17 -1 17 -4.625 17.0625 C-8 16 -8 16 -9.9375 14.4375 C-11.47681792 10.90612359 -11.68303974 7.78776583 -11 4 C-8.16250305 -0.53999512 -5.10870514 -0.72981502 0 0 Z " fill="#070605" transform="translate(153,186)"/>
</svg>
